<svg xmlns="http://www.w3.org/2000/svg" viewBox="0 0 1280 300" width="1280" height="300" role="img" aria-label="Assay — security scanner for the AI dev stack">
  <defs>
    <linearGradient id="bg" x1="0" y1="0" x2="1280" y2="300" gradientUnits="userSpaceOnUse">
      <stop offset="0" stop-color="#FCFCFE"/>
      <stop offset="1" stop-color="#EFEFFA"/>
    </linearGradient>
    <linearGradient id="mk" x1="60" y1="50" x2="200" y2="215" gradientUnits="userSpaceOnUse">
      <stop offset="0" stop-color="#6E63F2"/>
      <stop offset="1" stop-color="#4133CC"/>
    </linearGradient>
    <filter id="sh" x="-40%" y="-40%" width="180%" height="180%">
      <feDropShadow dx="0" dy="8" stdDeviation="12" flood-color="#4A3ED4" flood-opacity="0.20"/>
    </filter>
  </defs>
  <rect x="1" y="1" width="1278" height="298" rx="26" fill="url(#bg)" stroke="#E6E7EF"/>

  <!-- hallmark punch: struck shield cartouche + serif date-letter + gold assay glint -->
  <g transform="translate(50,40) scale(0.89)">
    <path d="M66 42 H174 a12 12 0 0 1 12 12 V118 C186 165 155 193 120 206 C85 193 54 165 54 118 V54 a12 12 0 0 1 12 -12 Z" fill="url(#mk)" filter="url(#sh)"/>
    <path d="M66 42 H174 a12 12 0 0 1 12 12 V118 C186 165 155 193 120 206 C85 193 54 165 54 118 V54 a12 12 0 0 1 12 -12 Z" fill="none" stroke="#FFFFFF" stroke-opacity="0.20" stroke-width="3"/>
    <text x="120" y="160" text-anchor="middle" font-family="Georgia,'Times New Roman',serif" font-size="128" font-weight="700" fill="#FFFFFF">A</text>
    <path d="M168 56 l4.5 11 l11 4.5 l-11 4.5 l-4.5 11 l-4.5 -11 l-11 -4.5 l11 -4.5 Z" fill="#EAB94A"/>
  </g>

  <text x="288" y="138" font-family="system-ui,'Segoe UI',Roboto,Helvetica,Arial,sans-serif" font-size="92" font-weight="800" fill="#1E2029" letter-spacing="-3">Assay</text>
  <text x="292" y="184" font-family="system-ui,'Segoe UI',Roboto,Helvetica,Arial,sans-serif" font-size="27" font-weight="500" fill="#5A6070">Security scanner for the AI dev stack</text>
  <g transform="translate(292,210)">
    <rect width="404" height="44" rx="11" fill="#FFFFFF" stroke="#E2E3EC"/>
    <text x="20" y="29" font-family="ui-monospace,'SF Mono',Menlo,Consolas,monospace" font-size="18" font-weight="700" fill="#4A3ED4">$</text>
    <text x="40" y="29" font-family="ui-monospace,'SF Mono',Menlo,Consolas,monospace" font-size="18" fill="#3A3E4A">assay scan .</text>
    <text x="196" y="29" font-family="ui-monospace,monospace" font-size="16" fill="#9096A6">&#8594;</text>
    <g transform="translate(220,11)">
      <rect width="164" height="22" rx="11" fill="#E9F7EF"/>
      <circle cx="17" cy="11" r="4" fill="#3FA372"/>
      <text x="30" y="15.5" font-family="ui-monospace,monospace" font-size="12.5" font-weight="700" fill="#2E7D54">verdict: safe</text>
    </g>
  </g>
</svg>
